<svg xmlns="http://www.w3.org/2000/svg" viewBox="0 0 360 180"><defs><style>.cls-1{fill:#151438;}.cls-2{fill:#fff;}.cls-3{fill:#6ec6ae;}</style></defs><g id="EVZIP_Horizontal_Bluebg"><path id="Blue_BG" data-name="Blue BG" class="cls-1" d="M338.58,150.12h-317a21.61,21.61,0,0,1-21.6-21.6v-77a21.61,21.61,0,0,1,21.6-21.6h317a21.61,21.61,0,0,1,21.6,21.6v77a21.61,21.61,0,0,1-21.6,21.6Z"/><path id="Register" class="cls-2" d="M307.11,66.79a7,7,0,0,1-2.27-1.52,7,7,0,0,1-2.09-5,7.2,7.2,0,0,1,.55-2.77,6.93,6.93,0,0,1,1.54-2.26,6.77,6.77,0,0,1,2.27-1.54,7.2,7.2,0,0,1,2.77-.55,7.29,7.29,0,0,1,2.78.55,6.83,6.83,0,0,1,2.26,1.54,6.44,6.44,0,0,1,1.52,2.26,6.87,6.87,0,0,1,.57,2.77,7,7,0,0,1-.57,2.78,6.82,6.82,0,0,1-1.52,2.26,7.09,7.09,0,0,1-2.26,1.52,7,7,0,0,1-2.78.57A6.87,6.87,0,0,1,307.11,66.79Zm-1.2-10.53a5.63,5.63,0,0,0-1.64,4,5.61,5.61,0,0,0,11.22,0,5.63,5.63,0,0,0-1.64-4,5.65,5.65,0,0,0-7.94,0Zm7,8h-1.42l-2-2.73h-.93v2.73h-1.27V56.19h2.39a2.63,2.63,0,0,1,2,.79,3,3,0,0,1,0,3.77,2.38,2.38,0,0,1-.93.61Zm-3.27-3.87a1.49,1.49,0,0,0,1.18-.44,1.57,1.57,0,0,0,.36-1.1,1.59,1.59,0,0,0-.36-1.11,1.49,1.49,0,0,0-1.18-.43h-1.12v3.08Z"/><g id="EVZIP"><path id="E" class="cls-3" d="M129.22,83.49h18.05v7.68H129.22V108h21.91v7.68H121.5V61.37h29.63V69H129.22Z"/><path id="V" class="cls-3" d="M179.81,97.18l13-35.81h8.39L180,118.12,157.38,61.37h8.52Z"/><path id="Z" class="cls-2" d="M201.71,115.7l25.36-45.83H207.23v-8.5h33.62l-25.36,45.84h24.69v8.49Z"/><path id="I" class="cls-2" d="M251.09,115.7V61.37h7.72V115.7Z"/><path id="P" class="cls-2" d="M276.25,61.37h8.12c6.53,0,10.32,2.93,12.32,5.35,2.66,3.22,4,7.54,4,12.59s-1.33,9.45-4,12.6c-2,2.49-5.79,5.42-12.32,5.42h-6.92V115.7h-7.72V61.37Zm17.51,17.94c0-2.12-.4-5.19-2.2-7.39C290,70,287.57,69,284.37,69h-6.92V89.64h6.92q4.8,0,7.19-2.86C293.36,84.58,293.76,81.51,293.76,79.31Z"/></g><polygon id="Icon" class="cls-3" points="43.9 133.73 103 101.25 83.14 101.25 96.36 78.92 76.51 78.92 97.18 43.5 63.77 57.07 43.8 89.84 69.73 89.84 43.9 133.73"/></g></svg>